<svg width="206" height="35" viewBox="0 0 206 35" fill="none" xmlns="http://www.w3.org/2000/svg">
<g opacity="0.3" clip-path="url(#clip0_1:108)">
<path d="M68.3884 0.432129H62.8541V25.105H68.3884V0.432129Z" fill="white"/>
<path d="M141.96 0.432129H136.426V25.105H141.96V0.432129Z" fill="white"/>
<path d="M0 21.5185L3.2503 17.6728C5.49039 19.4876 7.86224 20.6543 10.7173 20.6543C12.9573 20.6543 14.319 19.7901 14.319 18.321V18.2346C14.319 16.8519 13.4405 16.1605 9.26779 15.0802C4.21662 13.8271 0.966317 12.4444 0.966317 7.5185V7.4321C0.966317 2.93828 4.61195 0 9.75097 0C13.3966 0 16.5151 1.12345 19.0627 3.15432L16.2077 7.25925C13.9676 5.74691 11.8153 4.83951 9.70703 4.83951C7.59871 4.83951 6.50063 5.79013 6.50063 7.00001V7.0864C6.50063 8.72838 7.55479 9.2469 11.9032 10.3271C16.9983 11.6234 19.8533 13.4383 19.8533 17.716V17.8025C19.8533 22.6852 16.0759 25.4506 10.6294 25.4506C6.85203 25.4506 3.0307 24.1543 0 21.5185Z" fill="white"/>
<path d="M83.9812 0.259277H78.8861L68.1249 25.105H73.791L76.075 19.5741L78.0515 14.7778L81.3458 6.78398L84.6839 14.7778L82.5756 19.5741H86.6605L88.9445 25.105H94.7424L83.9812 0.259277Z" fill="white"/>
<path d="M143.234 0.432115H148.329L160.1 15.642V0.432115L165.547 0.30249V25.1049H160.847L148.68 9.41976V25.1049L143.278 25.2778L143.234 0.432115Z" fill="white"/>
<path d="M165.02 21.7778L168.49 17.9753C169.939 19.5309 171.301 20.4383 173.058 20.4383C175.122 20.4383 176.44 19.1852 176.44 16.3333V0.432115L182.106 0.30249V16.5926C182.106 19.5309 181.227 21.6914 179.734 23.2037C178.197 24.7161 175.956 25.4938 173.233 25.4938C169.324 25.4506 166.733 23.7654 165.02 21.7778Z" fill="white"/>
<path d="M194.887 0.259277H189.792L179.031 25.105H184.653L186.937 19.5741L188.914 14.7778L192.252 6.78398L195.59 14.7778L193.482 19.5741H197.567L199.851 25.105H205.605L194.887 0.259277Z" fill="white"/>
<path d="M59.472 17.6296C57.4955 19.4012 55.7385 20.5247 52.8835 20.5247C48.579 20.5247 45.5923 16.9815 45.5923 12.7901V12.7037C45.5923 8.46912 48.623 5.01233 52.8835 5.01233C55.3871 5.01233 57.3637 6.04938 59.2963 7.77778L62.8102 3.80246C60.4823 1.55555 57.6712 0 52.9275 0C47.8324 0 43.7475 2.50617 41.5953 6.26543C42.913 8.12346 43.6596 10.3704 43.6596 12.7469C43.6596 15.1667 42.869 17.4136 41.5513 19.2716C43.7036 23.0309 47.7884 25.4938 52.7078 25.4938C57.5394 25.4938 60.3944 23.8086 62.9859 21.0864L59.472 17.6296Z" fill="white"/>
<path d="M129.705 0.432129V15.642L117.978 0.432129H112.883V14.6914L118.329 24.9753V9.41978L130.452 25.105H135.152V0.432129H129.705Z" fill="white"/>
<path d="M110.072 20.179H100.408L100.452 0.30249H95.0498L94.9181 25.1049H112.663L110.072 20.179Z" fill="white"/>
<g clip-path="url(#clip1_1:108)">
<path d="M22.8098 10.9326C22.4342 11.1615 22.1244 11.4799 21.9097 11.8577C21.6949 12.2356 21.5822 12.6606 21.5822 13.0927C21.5822 13.5247 21.6949 13.9497 21.9097 14.3276C22.1244 14.7054 22.4342 15.0238 22.8098 15.2527C23.2994 17.0898 24.4 18.7165 25.9392 19.8776C27.4784 21.0387 29.369 21.6687 31.3147 21.6687C33.2603 21.6687 35.151 21.0387 36.6901 19.8776C38.2293 18.7165 39.3299 17.0898 39.8195 15.2527C40.1963 15.0247 40.5073 14.7067 40.723 14.3287C40.9386 13.9507 41.0518 13.5253 41.0518 13.0927C41.0518 12.6601 40.9386 12.2346 40.723 11.8566C40.5073 11.4786 40.1963 11.1606 39.8195 10.9326C39.3299 9.09552 38.2293 7.46885 36.6901 6.30771C35.151 5.14656 33.2603 4.5166 31.3147 4.5166C29.369 4.5166 27.4784 5.14656 25.9392 6.30771C24.4 7.46885 23.2994 9.09552 22.8098 10.9326ZM31.349 20.3151C29.8715 20.3269 28.4283 19.8811 27.2271 19.0418C26.0259 18.2025 25.1287 17.013 24.6646 15.6445H37.9965C37.5495 17.0162 36.6617 18.2111 35.4644 19.0523C34.2672 19.8934 32.8242 20.3362 31.349 20.3151ZM26.4506 13.0978C26.4496 12.8419 26.5263 12.5914 26.6712 12.3781C26.8161 12.1647 27.0225 11.9981 27.2645 11.8992C27.5064 11.8003 27.773 11.7737 28.0305 11.8226C28.288 11.8715 28.5248 11.9938 28.711 12.1741C28.8972 12.3543 29.0245 12.5844 29.0767 12.8352C29.1289 13.086 29.1037 13.3462 29.0043 13.5831C28.9049 13.8199 28.7357 14.0226 28.5182 14.1657C28.3006 14.3087 28.0445 14.3856 27.7822 14.3866C27.6076 14.3873 27.4346 14.3543 27.273 14.2896C27.1115 14.2249 26.9647 14.1297 26.8409 14.0094C26.7172 13.8892 26.6191 13.7463 26.5521 13.589C26.4851 13.4317 26.4506 13.263 26.4506 13.0927V13.0978ZM33.5261 13.0978C33.525 12.8404 33.6024 12.5886 33.7483 12.3741C33.8942 12.1597 34.1021 11.9924 34.3456 11.8934C34.5892 11.7945 34.8574 11.7683 35.1162 11.8183C35.3749 11.8682 35.6127 11.9921 35.7992 12.1741C35.9858 12.356 36.1127 12.588 36.1639 12.8405C36.2151 13.093 36.1883 13.3546 36.0869 13.5922C35.9855 13.8298 35.814 14.0326 35.5942 14.175C35.3744 14.3173 35.1162 14.3928 34.8524 14.3918C34.6778 14.3918 34.5049 14.3581 34.3436 14.2928C34.1823 14.2274 34.0359 14.1317 33.9127 14.011C33.7894 13.8902 33.6919 13.747 33.6255 13.5894C33.5592 13.4318 33.5254 13.263 33.5261 13.0927V13.0978ZM37.97 10.546H24.6117C25.0551 9.16603 25.9441 7.963 27.146 7.11656C28.3479 6.27012 29.7982 5.82568 31.2803 5.84961C32.7609 5.83967 34.2065 6.2886 35.4088 7.13169C36.611 7.97479 37.5079 9.16851 37.97 10.5408V10.546Z" fill="white"/>
<path d="M18.7991 13.0927V13.1597C18.7991 19.6913 24.0146 24.9754 31.2803 24.9754C38.546 24.9754 43.8354 19.6243 43.8354 13.1185V13.0514C43.8354 6.49403 38.6199 1.20996 31.349 1.20996C24.078 1.20996 18.7991 6.56105 18.7991 13.0927ZM42.1867 13.0927C42.1867 15.1912 41.5488 17.2427 40.3536 18.9875C39.1585 20.7323 37.4598 22.0921 35.4723 22.895C33.4849 23.6978 31.2981 23.9076 29.1885 23.4978C27.0788 23.088 25.1411 22.0771 23.6205 20.5928C22.0998 19.1086 21.0645 17.2177 20.6455 15.1593C20.2265 13.1009 20.4426 10.9676 21.2665 9.02907C22.0904 7.09055 23.4851 5.43394 25.2741 4.26879C27.0632 3.10364 29.1662 2.48227 31.3173 2.48329C34.1996 2.48739 36.9627 3.60664 39.0004 5.59554C41.038 7.58445 42.1839 10.2806 42.1867 13.0927Z" fill="white"/>
</g>
<path d="M112.839 27.1791H115.826C116.353 27.1791 116.836 27.2655 117.319 27.4816C117.802 27.6976 118.197 27.9569 118.549 28.3025C118.9 28.6482 119.164 29.0803 119.383 29.5124C119.603 29.9877 119.691 30.463 119.691 30.9816C119.691 31.5001 119.603 31.9754 119.383 32.4507C119.208 32.926 118.9 33.3149 118.549 33.6606C118.197 34.0062 117.802 34.3087 117.319 34.5248C116.836 34.7408 116.353 34.8273 115.826 34.8273H112.839V27.1791ZM114.859 33.1853H115.342C115.694 33.1853 116.001 33.142 116.265 33.0124C116.528 32.8828 116.792 32.7532 116.968 32.5803C117.143 32.4075 117.319 32.1482 117.407 31.889C117.495 31.6297 117.539 31.3272 117.539 31.0248C117.539 30.7223 117.495 30.4198 117.363 30.1606C117.275 29.9013 117.099 29.6853 116.924 29.4692C116.748 29.2964 116.484 29.1235 116.221 29.0371C115.957 28.9075 115.65 28.8643 115.298 28.8643H114.815V33.1853H114.859Z" fill="white"/>
<path d="M122.985 27.1791H120.965V34.8705H122.985V27.1791Z" fill="white"/>
<path d="M128.431 30.5926H132.472C132.472 30.9815 132.472 31.3704 132.428 31.7161C132.385 32.0618 132.341 32.3642 132.209 32.6235C132.077 33.0124 131.857 33.3581 131.638 33.7037C131.374 34.0062 131.111 34.2655 130.759 34.4815C130.408 34.6976 130.057 34.8272 129.661 34.9568C129.266 35.0865 128.827 35.1297 128.388 35.1297C127.773 35.1297 127.246 35.0433 126.718 34.8272C126.235 34.6112 125.796 34.3519 125.445 34.0062C125.093 33.6606 124.786 33.2285 124.61 32.7099C124.391 32.1914 124.303 31.6729 124.303 31.0679C124.303 30.463 124.391 29.9013 124.61 29.426C124.786 28.9075 125.093 28.5186 125.445 28.1297C125.796 27.784 126.235 27.4815 126.762 27.3087C127.289 27.0927 127.86 27.0062 128.475 27.0062C129.31 27.0062 130.013 27.1791 130.628 27.5247C131.243 27.8704 131.726 28.3889 132.077 29.1235L130.144 29.9013C129.969 29.4692 129.749 29.1667 129.442 28.9939C129.134 28.821 128.827 28.7346 128.475 28.7346C128.168 28.7346 127.904 28.7778 127.641 28.9074C127.377 29.0371 127.202 29.1667 127.026 29.3828C126.85 29.5988 126.718 29.8581 126.631 30.1173C126.543 30.4198 126.499 30.7223 126.499 31.1111C126.499 31.4568 126.543 31.7593 126.631 32.0186C126.718 32.2778 126.85 32.5371 127.026 32.7531C127.202 32.9692 127.421 33.0988 127.685 33.2284C127.948 33.3581 128.256 33.4013 128.563 33.4013C128.783 33.4013 128.959 33.3581 129.134 33.3149C129.31 33.2717 129.486 33.1853 129.617 33.0988C129.749 33.0124 129.881 32.8828 129.969 32.7099C130.057 32.5371 130.144 32.3642 130.144 32.1482H128.475V30.5926H128.431Z" fill="white"/>
<path d="M135.767 27.1791H133.746V34.8705H135.767V27.1791Z" fill="white"/>
<path d="M140.379 28.9075V34.8705H138.358V28.9075H136.689V27.1791H142.048V28.9075H140.379Z" fill="white"/>
<path d="M147.362 33.531H144.464L143.98 34.8705H141.828L144.815 27.1791H147.011L149.998 34.8705H147.846L147.362 33.531ZM146.835 32.0186L145.913 29.4692L144.991 32.0186H146.835Z" fill="white"/>
<path d="M152.897 27.1791V33.1853H155.356V34.8705H150.876V27.1791H152.897Z" fill="white"/>
<path d="M164.712 33.531H161.813L161.33 34.8705H159.178L162.165 27.1791H164.361L167.348 34.8705H165.195L164.712 33.531ZM164.141 32.0186L163.219 29.4692L162.296 32.0186H164.141Z" fill="white"/>
<path d="M171.784 30.5926H175.825C175.825 30.9815 175.825 31.3704 175.781 31.7161C175.737 32.0618 175.693 32.3642 175.561 32.6235C175.429 33.0124 175.21 33.3581 174.99 33.7037C174.727 34.0062 174.463 34.2655 174.112 34.4815C173.76 34.6976 173.409 34.8272 173.014 34.9568C172.618 35.0865 172.179 35.1297 171.74 35.1297C171.125 35.1297 170.598 35.0433 170.071 34.8272C169.588 34.6112 169.148 34.3519 168.797 34.0062C168.446 33.6606 168.138 33.2285 167.962 32.7099C167.743 32.1914 167.655 31.6729 167.655 31.0679C167.655 30.463 167.743 29.9013 167.962 29.426C168.138 28.9075 168.446 28.5186 168.797 28.1297C169.148 27.784 169.588 27.4815 170.115 27.3087C170.642 27.0927 171.213 27.0062 171.828 27.0062C172.662 27.0062 173.365 27.1791 173.98 27.5247C174.595 27.8704 175.078 28.3889 175.429 29.1235L173.497 29.9013C173.321 29.4692 173.101 29.1667 172.794 28.9939C172.487 28.821 172.179 28.7346 171.828 28.7346C171.52 28.7346 171.257 28.7778 170.993 28.9074C170.73 29.0371 170.554 29.1667 170.378 29.3828C170.202 29.5988 170.071 29.8581 169.983 30.1173C169.895 30.4198 169.851 30.7223 169.851 31.1111C169.851 31.4568 169.895 31.7593 169.983 32.0186C170.071 32.2778 170.202 32.5371 170.378 32.7531C170.554 32.9692 170.774 33.0988 171.037 33.2284C171.301 33.3581 171.608 33.4013 171.916 33.4013C172.135 33.4013 172.311 33.3581 172.487 33.3149C172.662 33.2717 172.838 33.1853 172.97 33.0988C173.101 33.0124 173.233 32.8828 173.321 32.7099C173.409 32.5371 173.497 32.3642 173.497 32.1482H171.828V30.5926H171.784Z" fill="white"/>
<path d="M181.535 28.9075H179.119V30.1606H181.403V31.8458H179.119V33.1853H181.535V34.8705H177.098V27.1791H181.535V28.9075Z" fill="white"/>
<path d="M182.984 34.8705V27.1791H185.005L188.782 31.889V27.1791H190.759V34.8705H188.782L185.005 30.1606V34.8705H182.984Z" fill="white"/>
<path d="M198.138 29.7716C197.655 29.2099 197.084 28.9074 196.381 28.9074C196.073 28.9074 195.81 28.9507 195.546 29.0803C195.283 29.2099 195.063 29.3396 194.887 29.5124C194.712 29.6852 194.536 29.9013 194.448 30.1605C194.36 30.4198 194.272 30.6791 194.272 30.9815C194.272 31.284 194.316 31.5865 194.448 31.8457C194.536 32.105 194.712 32.321 194.887 32.5371C195.063 32.7099 195.283 32.8828 195.546 32.9692C195.81 33.0988 196.073 33.142 196.381 33.142C197.04 33.142 197.611 32.8828 198.138 32.321V34.6976L197.918 34.784C197.611 34.9136 197.303 34.9569 197.04 35.0433C196.776 35.0865 196.513 35.1297 196.249 35.1297C195.722 35.1297 195.195 35.0433 194.712 34.8272C194.229 34.6112 193.789 34.3519 193.394 33.963C192.999 33.6174 192.735 33.1853 192.472 32.6667C192.252 32.1482 192.12 31.6297 192.12 31.0247C192.12 30.4198 192.252 29.9013 192.472 29.3828C192.691 28.9075 192.999 28.4754 193.394 28.1297C193.789 27.784 194.185 27.4815 194.712 27.3087C195.195 27.0927 195.722 27.0062 196.293 27.0062C196.6 27.0062 196.908 27.0494 197.215 27.0927C197.523 27.1359 197.83 27.2655 198.182 27.3951V29.7716H198.138Z" fill="white"/>
<path d="M201.3 31.1976L198.445 27.1791H200.905L202.354 29.2964L203.76 27.1791H206.176L203.321 31.1976V34.8705H201.3V31.1976Z" fill="white"/>
</g>
<defs>
<clipPath id="clip0_1:108">
<rect width="206" height="35" fill="white"/>
</clipPath>
<clipPath id="clip1_1:108">
<rect width="25.0362" height="23.7654" fill="white" transform="translate(18.7991 1.20996)"/>
</clipPath>
</defs>
</svg>
